<?xml version="1.0" encoding="UTF-8" standalone="no"?>
<!DOCTYPE svg PUBLIC "-//W3C//DTD SVG 1.1//EN" "http://www.w3.org/Graphics/SVG/1.1/DTD/svg11.dtd">
<svg version="1.1" xmlns="http://www.w3.org/2000/svg" xmlns:xlink="http://www.w3.org/1999/xlink" preserveAspectRatio="xMidYMid meet" viewBox="0 0 640 640" width="32" height="32"><defs><path d="M60 540L590 540L590 580L60 580L60 540Z" id="aFMgzAejE"></path><path d="M90 180L550 180L550 220L90 220L90 180Z" id="c1d3EJqXb"></path><path d="M100 420L560 420L560 460L100 460L100 420Z" id="bJFDoW1dY"></path><path d="M47.03 62L577.03 62L577.03 102L47.03 102L47.03 62Z" id="cWwe4JhQk"></path><path d="M320 320C306.26 318.94 297.67 318.28 294.24 318.02C161.71 307.82 58.98 197.99 57.65 65.08C57.56 56.4 57.35 34.71 57 0" id="c2U3dbPiWJ"></path><path d="M317 320C330.74 321.06 339.33 321.72 342.76 321.98C475.29 332.18 578.02 442.01 579.35 574.92C579.44 583.6 579.65 605.29 580 640" id="h2l52xqWA"></path><path d="M317 320C330.74 318.94 339.33 318.28 342.76 318.02C475.29 307.82 578.02 197.99 579.35 65.08C579.44 56.4 579.65 34.71 580 0" id="j3Zj0ypLb8"></path><path d="M317.5 320C300.58 321.27 290 322.07 285.77 322.39C153.29 332.35 50.48 442.07 49.15 574.92C49.06 583.6 48.85 605.29 48.5 640" id="a1Q61yPIK"></path></defs><g><g><g><use xlink:href="#aFMgzAejE" opacity="0.98" fill="#776ea1" fill-opacity="1"></use></g><g><use xlink:href="#c1d3EJqXb" opacity="0.98" fill="#776ea1" fill-opacity="1"></use></g><g><use xlink:href="#bJFDoW1dY" opacity="0.98" fill="#776ea1" fill-opacity="1"></use></g><g><use xlink:href="#cWwe4JhQk" opacity="0.98" fill="#776ea1" fill-opacity="1"></use></g><g><g><use xlink:href="#c2U3dbPiWJ" opacity="1" fill-opacity="0" stroke="#493c81" stroke-width="68" stroke-opacity="1"></use></g></g><g><g><use xlink:href="#h2l52xqWA" opacity="1" fill-opacity="0" stroke="#493c81" stroke-width="68" stroke-opacity="1"></use></g></g><g><g><use xlink:href="#j3Zj0ypLb8" opacity="1" fill-opacity="0" stroke="#3d326c" stroke-width="68" stroke-opacity="1"></use></g></g><g><g><use xlink:href="#a1Q61yPIK" opacity="1" fill-opacity="0" stroke="#3d326c" stroke-width="61" stroke-opacity="1"></use></g></g></g></g></svg>